<?xml version="1.0" standalone="no"?>
<!DOCTYPE svg PUBLIC "-//W3C//DTD SVG 20010904//EN"
 "http://www.w3.org/TR/2001/REC-SVG-20010904/DTD/svg10.dtd">
<svg version="1.0" xmlns="http://www.w3.org/2000/svg"
 width="70.000000pt" height="70.000000pt" viewBox="0 0 70.000000 70.000000"
 preserveAspectRatio="xMidYMid meet">
<metadata>
Created by potrace 1.11, written by Peter Selinger 2001-2013
</metadata>
<g transform="translate(0.000000,70.000000) scale(0.100000,-0.100000)"
fill="#000000" stroke="none">
<path d="M270 580 c-30 -27 -58 -50 -61 -50 -4 0 -10 10 -14 23 -7 19 -8 17
-14 -17 -10 -66 -31 -57 -31 13 0 34 -4 61 -10 61 -6 0 -10 -31 -10 -73 l0
-74 -60 -48 c-56 -45 -72 -65 -51 -65 5 0 14 7 21 15 7 8 16 15 21 15 5 0 9
-61 9 -135 0 -127 -1 -135 -19 -135 -11 0 -23 -4 -26 -10 -4 -7 102 -10 309
-10 204 0 316 4 316 10 0 6 -9 10 -20 10 -19 0 -20 7 -20 135 l0 135 24 -15
c13 -9 26 -12 29 -8 6 9 -299 264 -322 269 -9 2 -41 -18 -71 -46z m209 -85
l110 -90 1 -92 0 -93 -88 0 -87 0 3 43 c5 58 -10 69 -90 65 l-63 -3 -3 -53 -3
-52 -85 0 -84 0 0 93 1 92 122 101 c102 85 125 100 139 90 9 -6 66 -51 127
-101z m-219 -340 l0 -45 -85 0 -85 0 0 45 0 45 85 0 85 0 0 -45z m330 0 l0
-45 -85 0 -85 0 0 45 0 45 85 0 85 0 0 -45z"/>
<path d="M302 488 c-10 -13 -15 -34 -13 -55 0 -7 12 -20 26 -29 23 -15 27 -15
50 0 27 18 34 63 13 84 -16 16 -63 15 -76 0z m65 -24 c7 -18 -6 -45 -24 -51
-6 -2 -18 3 -27 12 -12 12 -13 21 -6 36 13 23 48 25 57 3z"/>
<path d="M164 166 c-4 -10 -2 -22 4 -28 8 -8 13 -7 18 6 4 10 2 22 -4 28 -8 8
-13 7 -18 -6z"/>
<path d="M110 150 c0 -11 5 -20 10 -20 6 0 10 9 10 20 0 11 -4 20 -10 20 -5 0
-10 -9 -10 -20z"/>
<path d="M220 150 c0 -11 5 -20 10 -20 6 0 10 9 10 20 0 11 -4 20 -10 20 -5 0
-10 -9 -10 -20z"/>
<path d="M440 150 c0 -11 5 -20 10 -20 6 0 10 9 10 20 0 11 -4 20 -10 20 -5 0
-10 -9 -10 -20z"/>
<path d="M490 150 c0 -11 5 -20 10 -20 6 0 10 9 10 20 0 11 -4 20 -10 20 -5 0
-10 -9 -10 -20z"/>
<path d="M550 150 c0 -11 5 -20 10 -20 6 0 10 9 10 20 0 11 -4 20 -10 20 -5 0
-10 -9 -10 -20z"/>
</g>
</svg>
