<?xml version="1.0" standalone="no"?>
<!DOCTYPE svg PUBLIC "-//W3C//DTD SVG 20010904//EN"
 "http://www.w3.org/TR/2001/REC-SVG-20010904/DTD/svg10.dtd">
<svg version="1.0" xmlns="http://www.w3.org/2000/svg"
 width="70.000000pt" height="70.000000pt" viewBox="0 0 70.000000 70.000000"
 preserveAspectRatio="xMidYMid meet">
<metadata>
Created by potrace 1.11, written by Peter Selinger 2001-2013
</metadata>
<g transform="translate(0.000000,70.000000) scale(0.100000,-0.100000)"
fill="#000000" stroke="none">
<path d="M266 579 c-57 -49 -60 -50 -68 -29 -11 30 -28 15 -28 -26 0 -19 -4
-34 -10 -34 -6 0 -10 27 -10 60 0 33 -4 60 -10 60 -6 0 -10 -31 -10 -74 l0
-73 -60 -47 c-55 -43 -73 -66 -52 -66 4 0 18 7 30 16 l22 15 0 -135 0 -136
-25 0 c-14 0 -25 -4 -25 -10 0 -6 114 -10 321 -10 211 0 318 3 314 10 -3 6
-15 10 -26 10 -18 0 -19 8 -19 135 l0 135 25 -16 c25 -16 48 -12 29 5 -64 59
-317 261 -326 261 -7 -1 -40 -24 -72 -51z m203 -79 l121 -101 0 -89 0 -90 -85
0 -85 0 0 43 c0 63 -7 68 -86 65 l-69 -3 -3 -52 -3 -53 -85 0 -84 0 1 93 0 92
117 97 c64 53 122 97 128 97 7 1 66 -44 133 -99z m-209 -345 l0 -45 -85 0 -85
0 0 45 0 45 85 0 85 0 0 -45z m330 0 l0 -45 -85 0 -85 0 0 45 0 45 85 0 85 0
0 -45z"/>
<path d="M295 476 c-19 -28 -9 -58 26 -76 45 -25 94 51 57 88 -21 21 -66 14
-83 -12z m70 -26 c0 -18 -6 -26 -23 -28 -13 -2 -25 3 -28 12 -10 26 4 48 28
44 17 -2 23 -10 23 -28z"/>
<path d="M117 173 c-11 -10 -8 -43 3 -43 6 0 10 11 10 25 0 26 -2 29 -13 18z"/>
<path d="M164 166 c-4 -10 -2 -22 4 -28 8 -8 13 -7 18 6 4 10 2 22 -4 28 -8 8
-13 7 -18 -6z"/>
<path d="M220 156 c0 -14 5 -26 10 -26 6 0 10 9 10 19 0 11 -4 23 -10 26 -6 4
-10 -5 -10 -19z"/>
<path d="M440 156 c0 -14 5 -26 10 -26 6 0 10 9 10 19 0 11 -4 23 -10 26 -6 4
-10 -5 -10 -19z"/>
<path d="M497 174 c-11 -11 -8 -44 3 -44 15 0 24 30 13 41 -5 5 -12 6 -16 3z"/>
<path d="M550 156 c0 -14 5 -26 10 -26 6 0 10 9 10 19 0 11 -4 23 -10 26 -6 4
-10 -5 -10 -19z"/>
</g>
</svg>
